# xmcd CD database file
#
# Track frame offsets:
#	183
#	13685
#	24203
#	41378
#	58320
#	76790
#	86935
#	99895
#	114300
#	133793
#	156315
#	170280
#	184578
#	200670
#	214995
#	240470
#	250878
#	270023
#
# Disc length: 3775 seconds
#
# Revision: 2
# Processed by: cddbd v1.5.1PL0 Copyright (c) Steve Scherf et al.
# Submitted via: CDex 1.50
#
DISCID=e40ebd12
DTITLE=SARAH VAUGHAN - The Divine Lady - CD3
DYEAR=1991
DGENRE=Jazz
TTITLE0=You're Driving My Crazy
TTITLE1=What'll I Do ?
TTITLE2=Solitude
TTITLE3=These Foolish Things
TTITLE4=The Man I Love
TTITLE5=Only
TTITLE6=Lazy Afternoon
TTITLE7=A Taste Of Honey
TTITLE8=Sermonette
TTITLE9=In Love In Vain
TTITLE10=The Good Life
TTITLE11=Monin
TTITLE12=Round Midnight
TTITLE13=Baby Won't You Please Come Home
TTITLE14=Midnight Sun
TTITLE15=Just In Time
TTITLE16=The Very Throught Of You
TTITLE17=When Lights Are Low
EXTD=YEAR: 1991
EXTT0=
EXTT1=
EXTT2=
EXTT3=
EXTT4=
EXTT5=
EXTT6=
EXTT7=
EXTT8=
EXTT9=
EXTT10=
EXTT11=
EXTT12=
EXTT13=
EXTT14=
EXTT15=
EXTT16=
EXTT17=
PLAYORDER=
